<?xml version="1.0" encoding="UTF-8"?>
<!DOCTYPE svg PUBLIC "-//W3C//DTD SVG 1.1//EN" "http://www.w3.org/Graphics/SVG/1.1/DTD/svg11.dtd">
<!-- Creator: CorelDRAW 2018 (64 Bit) -->
<svg xmlns="http://www.w3.org/2000/svg" xml:space="preserve" width="470px" height="100px" version="1.1" style="shape-rendering:geometricPrecision; text-rendering:geometricPrecision; image-rendering:optimizeQuality; fill-rule:evenodd; clip-rule:evenodd"
viewBox="0 0 470 100"
 xmlns:xlink="http://www.w3.org/1999/xlink">
 <defs>
  <style type="text/css">
   <![CDATA[
    .fil0 {fill:none}
    .fil2 {fill:red}
    .fil1 {fill:black;fill-rule:nonzero}
   ]]>
  </style>
 </defs>
 <g id="Capa_x0020_1">
  <metadata id="CorelCorpID_0Corel-Layer"/>
  <rect class="fil0" width="470" height="100"/>
  <g id="_3022026352112">
   <path class="fil1" d="M193.03 10.76l0 37.96 -10.73 0 0 -14.81 -14.64 0 0 14.81 -10.74 0 0 -37.96 10.74 0 0 14.26 14.64 0 0 -14.26 10.73 0zm36.85 29.66l0 8.3 -30.47 0 0 -37.96 29.76 0 0 8.3 -19.14 0 0 6.4 16.87 0 0 8.02 -16.87 0 0 6.94 19.85 0zm22.11 -1.79l-5.86 0 0 10.09 -10.74 0 0 -37.96 17.35 0c3.44,0 6.42,0.57 8.95,1.71 2.53,1.14 4.48,2.77 5.86,4.88 1.37,2.11 2.06,4.6 2.06,7.46 0,2.74 -0.65,5.14 -1.93,7.18 -1.28,2.04 -3.12,3.64 -5.5,4.8l8.19 11.93 -11.5 0 -6.88 -10.09zm6.77 -13.82c0,-1.78 -0.56,-3.15 -1.68,-4.13 -1.12,-0.97 -2.78,-1.46 -4.99,-1.46l-5.96 0 0 11.12 5.96 0c2.21,0 3.87,-0.48 4.99,-1.44 1.12,-0.96 1.68,-2.32 1.68,-4.09zm32.26 13.82l-5.86 0 0 10.09 -10.73 0 0 -37.96 17.35 0c3.43,0 6.41,0.57 8.94,1.71 2.53,1.14 4.49,2.77 5.86,4.88 1.37,2.11 2.06,4.6 2.06,7.46 0,2.74 -0.64,5.14 -1.92,7.18 -1.29,2.04 -3.12,3.64 -5.51,4.8l8.19 11.93 -11.49 0 -6.89 -10.09zm6.78 -13.82c0,-1.78 -0.56,-3.15 -1.68,-4.13 -1.12,-0.97 -2.79,-1.46 -4.99,-1.46l-5.97 0 0 11.12 5.97 0c2.2,0 3.87,-0.48 4.99,-1.44 1.12,-0.96 1.68,-2.32 1.68,-4.09zm42.18 16.53l-16.05 0 -2.98 7.38 -10.95 0 16.75 -37.96 10.57 0 16.81 37.96 -11.17 0 -2.98 -7.38zm-3.14 -7.91l-4.88 -12.15 -4.88 12.15 9.76 0zm30.91 16.05c-2.78,0 -5.31,-0.48 -7.59,-1.44 -2.28,-0.96 -4.14,-2.34 -5.59,-4.15l5.86 -6.94c2.02,2.64 4.21,3.96 6.56,3.96 1.56,0 2.74,-0.47 3.55,-1.41 0.82,-0.94 1.22,-2.31 1.22,-4.12l0 -16.32 -13.12 0 0 -8.3 23.75 0 0 23.97c0,4.91 -1.24,8.6 -3.72,11.06 -2.47,2.46 -6.11,3.69 -10.92,3.69zm50.46 -9.06l0 8.3 -30.48 0 0 -37.96 29.77 0 0 8.3 -19.14 0 0 6.4 16.86 0 0 8.02 -16.86 0 0 6.94 19.85 0zm19.3 9.06c-3.07,0 -6.06,-0.38 -8.95,-1.14 -2.89,-0.76 -5.24,-1.77 -7.05,-3.04l3.53 -7.91c1.7,1.12 3.67,2.02 5.91,2.71 2.24,0.68 4.44,1.03 6.61,1.03 4.12,0 6.18,-1.03 6.18,-3.1 0,-1.08 -0.58,-1.88 -1.76,-2.41 -1.17,-0.52 -3.06,-1.07 -5.66,-1.65 -2.86,-0.62 -5.25,-1.28 -7.16,-1.98 -1.92,-0.71 -3.56,-1.83 -4.94,-3.39 -1.37,-1.55 -2.06,-3.65 -2.06,-6.29 0,-2.31 0.64,-4.4 1.9,-6.26 1.27,-1.86 3.15,-3.34 5.67,-4.42 2.51,-1.09 5.59,-1.63 9.24,-1.63 2.5,0 4.95,0.28 7.38,0.84 2.42,0.56 4.55,1.39 6.39,2.47l-3.3 7.97c-3.62,-1.95 -7.12,-2.93 -10.52,-2.93 -2.13,0 -3.69,0.32 -4.66,0.95 -0.98,0.63 -1.47,1.46 -1.47,2.47 0,1.01 0.58,1.77 1.74,2.28 1.15,0.5 3.01,1.03 5.58,1.57 2.89,0.61 5.29,1.27 7.18,1.98 1.9,0.7 3.55,1.82 4.94,3.36 1.39,1.54 2.09,3.62 2.09,6.26 0,2.28 -0.64,4.34 -1.9,6.18 -1.27,1.85 -3.16,3.32 -5.69,4.42 -2.53,1.1 -5.61,1.66 -9.22,1.66z"/>
   <path class="fil1" d="M179.57 85.76l0 3.88 -22.65 0 0 -31.2 22.02 0 0 3.88 -17.56 0 0 9.58 15.64 0 0 3.79 -15.64 0 0 10.07 18.19 0zm26.47 3.88l-9.36 -12.88 -9.23 12.88 -5.12 0 11.72 -16 -11.01 -15.2 5.08 0 8.74 11.99 8.64 -11.99 4.86 0 -11.01 15.07 11.81 16.13 -5.12 0zm21.53 -31.2c4.04,0 7.22,0.97 9.53,2.9 2.32,1.93 3.48,4.59 3.48,7.98 0,3.38 -1.16,6.04 -3.48,7.98 -2.31,1.93 -5.49,2.89 -9.53,2.89l-7.72 0 0 9.45 -4.45 0 0 -31.2 12.17 0zm-0.14 17.88c2.83,0 4.98,-0.61 6.46,-1.81 1.49,-1.2 2.23,-2.93 2.23,-5.19 0,-2.26 -0.74,-3.99 -2.23,-5.19 -1.48,-1.21 -3.63,-1.81 -6.46,-1.81l-7.58 0 0 14 7.58 0zm40.56 13.32l-6.73 -9.58c-0.83,0.06 -1.49,0.09 -1.96,0.09l-7.71 0 0 9.49 -4.46 0 0 -31.2 12.17 0c4.04,0 7.22,0.97 9.54,2.9 2.31,1.93 3.47,4.59 3.47,7.98 0,2.4 -0.59,4.46 -1.78,6.15 -1.19,1.69 -2.88,2.93 -5.08,3.7l7.4 10.47 -4.86 0zm-8.82 -13.28c2.82,0 4.97,-0.61 6.46,-1.83 1.48,-1.22 2.23,-2.95 2.23,-5.21 0,-2.26 -0.75,-3.99 -2.23,-5.19 -1.49,-1.21 -3.64,-1.81 -6.46,-1.81l-7.58 0 0 14.04 7.58 0zm43.01 9.4l0 3.88 -22.65 0 0 -31.2 22.02 0 0 3.88 -17.56 0 0 9.58 15.64 0 0 3.79 -15.64 0 0 10.07 18.19 0zm16.31 4.24c-2.35,0 -4.61,-0.37 -6.8,-1.09 -2.18,-0.73 -3.9,-1.67 -5.15,-2.83l1.65 -3.48c1.19,1.07 2.71,1.94 4.57,2.61 1.86,0.67 3.77,1 5.73,1 2.58,0 4.51,-0.44 5.79,-1.31 1.28,-0.88 1.92,-2.05 1.92,-3.5 0,-1.07 -0.35,-1.94 -1.05,-2.61 -0.7,-0.67 -1.56,-1.18 -2.58,-1.54 -1.03,-0.35 -2.48,-0.76 -4.35,-1.2 -2.35,-0.57 -4.24,-1.13 -5.68,-1.7 -1.44,-0.56 -2.68,-1.43 -3.7,-2.6 -1.03,-1.18 -1.54,-2.76 -1.54,-4.75 0,-1.66 0.44,-3.16 1.32,-4.5 0.87,-1.34 2.2,-2.41 3.98,-3.21 1.79,-0.8 4,-1.2 6.65,-1.2 1.84,0 3.65,0.24 5.43,0.71 1.79,0.47 3.32,1.16 4.59,2.05l-1.47 3.57c-1.3,-0.84 -2.7,-1.47 -4.19,-1.9 -1.48,-0.43 -2.94,-0.64 -4.36,-0.64 -2.53,0 -4.42,0.45 -5.69,1.38 -1.26,0.92 -1.89,2.11 -1.89,3.56 0,1.07 0.36,1.94 1.07,2.61 0.71,0.67 1.59,1.19 2.65,1.56 1.06,0.37 2.49,0.76 4.3,1.18 2.35,0.57 4.24,1.13 5.66,1.69 1.43,0.57 2.65,1.43 3.68,2.59 1.02,1.16 1.54,2.72 1.54,4.68 0,1.63 -0.45,3.13 -1.34,4.48 -0.89,1.35 -2.24,2.42 -4.06,3.21 -1.81,0.79 -4.04,1.18 -6.68,1.18zm27.68 0c-2.35,0 -4.62,-0.37 -6.8,-1.09 -2.18,-0.73 -3.9,-1.67 -5.15,-2.83l1.65 -3.48c1.19,1.07 2.71,1.94 4.57,2.61 1.85,0.67 3.76,1 5.73,1 2.58,0 4.51,-0.44 5.79,-1.31 1.28,-0.88 1.92,-2.05 1.92,-3.5 0,-1.07 -0.35,-1.94 -1.05,-2.61 -0.7,-0.67 -1.56,-1.18 -2.59,-1.54 -1.02,-0.35 -2.47,-0.76 -4.34,-1.2 -2.35,-0.57 -4.24,-1.13 -5.69,-1.7 -1.44,-0.56 -2.67,-1.43 -3.69,-2.6 -1.03,-1.18 -1.54,-2.76 -1.54,-4.75 0,-1.66 0.44,-3.16 1.31,-4.5 0.88,-1.34 2.21,-2.41 3.99,-3.21 1.79,-0.8 4,-1.2 6.64,-1.2 1.84,0 3.66,0.24 5.44,0.71 1.78,0.47 3.31,1.16 4.59,2.05l-1.47 3.57c-1.31,-0.84 -2.7,-1.47 -4.19,-1.9 -1.48,-0.43 -2.94,-0.64 -4.37,-0.64 -2.52,0 -4.42,0.45 -5.68,1.38 -1.26,0.92 -1.89,2.11 -1.89,3.56 0,1.07 0.35,1.94 1.07,2.61 0.71,0.67 1.59,1.19 2.65,1.56 1.05,0.37 2.49,0.76 4.3,1.18 2.35,0.57 4.23,1.13 5.66,1.69 1.43,0.57 2.65,1.43 3.68,2.59 1.02,1.16 1.53,2.72 1.53,4.68 0,1.63 -0.44,3.13 -1.33,4.48 -0.89,1.35 -2.25,2.42 -4.06,3.21 -1.81,0.79 -4.04,1.18 -6.68,1.18z"/>
   <path class="fil2" d="M94.54 90l0 -20 46.14 0 0 20 -46.14 0zm0 -30l0 -20 46.14 0 0 20 -46.14 0zm0 -30l0 -20 46.14 0 0 20 -46.14 0z"/>
   <polygon class="fil1" points="94.54,10 94.54,90 67.57,90 67.57,61.09 42.66,61.09 42.66,90 15.69,90 15.69,10 42.66,10 42.66,38.91 67.57,38.91 67.57,10 "/>
  </g>
 </g>
</svg>
