<?xml version="1.0" encoding="UTF-8"?>
<!DOCTYPE svg PUBLIC "-//W3C//DTD SVG 1.1//EN" "http://www.w3.org/Graphics/SVG/1.1/DTD/svg11.dtd">
<!-- Creator: CorelDRAW 2018 (64 Bit) -->
<svg xmlns="http://www.w3.org/2000/svg" xml:space="preserve" width="274px" height="50px" version="1.1" style="shape-rendering:geometricPrecision; text-rendering:geometricPrecision; image-rendering:optimizeQuality; fill-rule:evenodd; clip-rule:evenodd"
viewBox="0 0 274.01 49.97"
 xmlns:xlink="http://www.w3.org/1999/xlink">
 <defs>
  <style type="text/css">
   <![CDATA[
    .fil1 {fill:red}
    .fil2 {fill:#787878;fill-rule:nonzero}
    .fil0 {fill:#787878;fill-rule:nonzero}
   ]]>
  </style>
 </defs>
 <g id="Capa_x0020_1">
  <metadata id="CorelCorpID_0Corel-Layer"/>
  <g id="_1631954359424">
   <path class="fil0" d="M110.79 0.48l0 23.71 -6.71 0 0 -9.25 -9.15 0 0 9.25 -6.7 0 0 -23.71 6.7 0 0 8.91 9.15 0 0 -8.91 6.71 0zm23.01 18.52l0 5.19 -19.03 0 0 -23.71 18.59 0 0 5.18 -11.95 0 0 4 10.53 0 0 5.01 -10.53 0 0 4.33 12.39 0zm13.81 -1.11l-3.66 0 0 6.3 -6.7 0 0 -23.71 10.84 0c2.14,0 4,0.35 5.58,1.06 1.59,0.72 2.8,1.73 3.66,3.05 0.86,1.32 1.29,2.88 1.29,4.66 0,1.72 -0.4,3.21 -1.2,4.49 -0.8,1.27 -1.95,2.27 -3.44,2.99l5.11 7.46 -7.18 0 -4.3 -6.3zm4.24 -8.64c0,-1.11 -0.35,-1.97 -1.05,-2.57 -0.7,-0.61 -1.74,-0.92 -3.12,-0.92l-3.73 0 0 6.94 3.73 0c1.38,0 2.42,-0.3 3.12,-0.89 0.7,-0.6 1.05,-1.45 1.05,-2.56zm20.15 8.64l-3.66 0 0 6.3 -6.71 0 0 -23.71 10.84 0c2.15,0 4.01,0.35 5.59,1.06 1.58,0.72 2.8,1.73 3.66,3.05 0.86,1.32 1.28,2.88 1.28,4.66 0,1.72 -0.4,3.21 -1.2,4.49 -0.8,1.27 -1.95,2.27 -3.44,2.99l5.12 7.46 -7.18 0 -4.3 -6.3zm4.23 -8.64c0,-1.11 -0.35,-1.97 -1.05,-2.57 -0.7,-0.61 -1.74,-0.92 -3.12,-0.92l-3.72 0 0 6.94 3.72 0c1.38,0 2.42,-0.3 3.12,-0.89 0.7,-0.6 1.05,-1.45 1.05,-2.56zm26.35 10.33l-10.02 0 -1.87 4.61 -6.84 0 10.47 -23.71 6.6 0 10.5 23.71 -6.98 0 -1.86 -4.61zm-1.96 -4.95l-3.05 -7.58 -3.05 7.58 6.1 0zm19.31 10.03c-1.74,0 -3.32,-0.3 -4.74,-0.9 -1.43,-0.59 -2.59,-1.46 -3.49,-2.59l3.66 -4.33c1.26,1.65 2.63,2.47 4.09,2.47 0.98,0 1.72,-0.29 2.22,-0.88 0.51,-0.59 0.77,-1.45 0.77,-2.58l0 -10.19 -8.2 0 0 -5.18 14.83 0 0 14.97c0,3.07 -0.77,5.37 -2.32,6.91 -1.54,1.53 -3.82,2.3 -6.82,2.3zm31.52 -5.66l0 5.19 -19.04 0 0 -23.71 18.6 0 0 5.18 -11.96 0 0 4 10.53 0 0 5.01 -10.53 0 0 4.33 12.4 0zm12.06 5.66c-1.92,0 -3.79,-0.24 -5.59,-0.71 -1.81,-0.47 -3.28,-1.11 -4.41,-1.9l2.21 -4.94c1.06,0.7 2.29,1.26 3.69,1.69 1.4,0.43 2.77,0.65 4.13,0.65 2.57,0 3.86,-0.65 3.86,-1.94 0,-0.67 -0.37,-1.18 -1.1,-1.5 -0.73,-0.33 -1.91,-0.68 -3.54,-1.04 -1.78,-0.38 -3.27,-0.79 -4.47,-1.23 -1.2,-0.44 -2.23,-1.15 -3.08,-2.12 -0.86,-0.97 -1.29,-2.28 -1.29,-3.93 0,-1.44 0.4,-2.75 1.18,-3.91 0.8,-1.16 1.98,-2.08 3.55,-2.76 1.56,-0.68 3.49,-1.02 5.77,-1.02 1.56,0 3.09,0.18 4.61,0.53 1.51,0.35 2.84,0.86 3.99,1.54l-2.06 4.98c-2.26,-1.22 -4.45,-1.83 -6.57,-1.83 -1.34,0 -2.31,0.2 -2.92,0.59 -0.61,0.4 -0.91,0.91 -0.91,1.54 0,0.63 0.36,1.11 1.08,1.43 0.72,0.31 1.89,0.64 3.49,0.98 1.81,0.38 3.3,0.79 4.49,1.23 1.18,0.44 2.21,1.14 3.08,2.1 0.87,0.96 1.31,2.27 1.31,3.92 0,1.42 -0.4,2.71 -1.19,3.86 -0.79,1.15 -1.98,2.07 -3.56,2.76 -1.58,0.69 -3.5,1.03 -5.75,1.03z"/>
   <path class="fil0" d="M102.37 47.33l0 2.42 -14.14 0 0 -19.49 13.75 0 0 2.42 -10.97 0 0 5.99 9.78 0 0 2.37 -9.78 0 0 6.29 11.36 0zm16.54 2.42l-5.85 -8.05 -5.76 8.05 -3.2 0 7.32 -9.99 -6.88 -9.5 3.18 0 5.46 7.49 5.4 -7.49 3.03 0 -6.88 9.41 7.38 10.08 -3.2 0zm13.45 -19.49c2.52,0 4.51,0.61 5.96,1.81 1.44,1.21 2.17,2.87 2.17,4.99 0,2.11 -0.73,3.77 -2.17,4.98 -1.45,1.21 -3.44,1.81 -5.96,1.81l-4.82 0 0 5.9 -2.78 0 0 -19.49 7.6 0zm-0.09 11.17c1.77,0 3.11,-0.38 4.04,-1.13 0.93,-0.75 1.39,-1.83 1.39,-3.24 0,-1.41 -0.46,-2.5 -1.39,-3.25 -0.93,-0.75 -2.27,-1.13 -4.04,-1.13l-4.73 0 0 8.75 4.73 0zm25.34 8.32l-4.2 -5.98c-0.52,0.03 -0.93,0.05 -1.23,0.05l-4.82 0 0 5.93 -2.78 0 0 -19.49 7.6 0c2.53,0 4.51,0.61 5.96,1.81 1.45,1.21 2.17,2.87 2.17,4.99 0,1.5 -0.37,2.78 -1.11,3.84 -0.74,1.06 -1.8,1.83 -3.18,2.31l4.63 6.54 -3.04 0zm-5.51 -8.3c1.76,0 3.11,-0.38 4.03,-1.14 0.93,-0.76 1.4,-1.84 1.4,-3.25 0,-1.41 -0.47,-2.5 -1.4,-3.25 -0.92,-0.75 -2.27,-1.13 -4.03,-1.13l-4.74 0 0 8.77 4.74 0zm26.87 5.88l0 2.42 -14.15 0 0 -19.49 13.76 0 0 2.42 -10.97 0 0 5.99 9.77 0 0 2.37 -9.77 0 0 6.29 11.36 0zm10.18 2.64c-1.46,0 -2.88,-0.22 -4.24,-0.68 -1.37,-0.45 -2.44,-1.04 -3.22,-1.77l1.03 -2.17c0.75,0.67 1.7,1.21 2.86,1.63 1.16,0.42 2.35,0.63 3.57,0.63 1.62,0 2.83,-0.28 3.63,-0.82 0.79,-0.55 1.19,-1.28 1.19,-2.19 0,-0.67 -0.22,-1.21 -0.65,-1.63 -0.44,-0.42 -0.98,-0.74 -1.62,-0.96 -0.64,-0.22 -1.54,-0.47 -2.71,-0.75 -1.47,-0.35 -2.65,-0.7 -3.55,-1.06 -0.9,-0.35 -1.67,-0.89 -2.31,-1.63 -0.64,-0.73 -0.96,-1.72 -0.96,-2.96 0,-1.04 0.27,-1.98 0.82,-2.81 0.55,-0.84 1.38,-1.51 2.49,-2.01 1.11,-0.5 2.5,-0.75 4.15,-0.75 1.15,0 2.28,0.15 3.4,0.45 1.11,0.29 2.07,0.72 2.86,1.28l-0.92 2.22c-0.81,-0.52 -1.68,-0.91 -2.61,-1.18 -0.93,-0.27 -1.84,-0.4 -2.73,-0.4 -1.58,0 -2.76,0.28 -3.55,0.86 -0.79,0.58 -1.18,1.32 -1.18,2.23 0,0.66 0.22,1.21 0.66,1.63 0.45,0.41 1,0.74 1.66,0.97 0.66,0.23 1.55,0.48 2.69,0.74 1.46,0.35 2.64,0.7 3.53,1.06 0.89,0.35 1.66,0.89 2.3,1.61 0.64,0.72 0.96,1.7 0.96,2.92 0,1.03 -0.28,1.96 -0.84,2.8 -0.55,0.85 -1.4,1.52 -2.53,2.01 -1.13,0.49 -2.52,0.73 -4.18,0.73zm17.3 0c-1.47,0 -2.89,-0.22 -4.25,-0.68 -1.36,-0.45 -2.44,-1.04 -3.22,-1.77l1.03 -2.17c0.75,0.67 1.7,1.21 2.86,1.63 1.16,0.42 2.35,0.63 3.58,0.63 1.61,0 2.82,-0.28 3.62,-0.82 0.79,-0.55 1.19,-1.28 1.19,-2.19 0,-0.67 -0.22,-1.21 -0.65,-1.63 -0.44,-0.42 -0.98,-0.74 -1.62,-0.96 -0.64,-0.22 -1.54,-0.47 -2.71,-0.75 -1.47,-0.35 -2.65,-0.7 -3.55,-1.06 -0.9,-0.35 -1.67,-0.89 -2.31,-1.63 -0.64,-0.73 -0.96,-1.72 -0.96,-2.96 0,-1.04 0.27,-1.98 0.82,-2.81 0.55,-0.84 1.38,-1.51 2.49,-2.01 1.11,-0.5 2.5,-0.75 4.15,-0.75 1.15,0 2.28,0.15 3.4,0.45 1.11,0.29 2.06,0.72 2.86,1.28l-0.92 2.22c-0.81,-0.52 -1.69,-0.91 -2.61,-1.18 -0.93,-0.27 -1.84,-0.4 -2.73,-0.4 -1.58,0 -2.76,0.28 -3.55,0.86 -0.79,0.58 -1.18,1.32 -1.18,2.23 0,0.66 0.22,1.21 0.66,1.63 0.45,0.41 1,0.74 1.66,0.97 0.66,0.23 1.55,0.48 2.69,0.74 1.46,0.35 2.64,0.7 3.53,1.06 0.89,0.35 1.66,0.89 2.3,1.61 0.64,0.72 0.96,1.7 0.96,2.92 0,1.03 -0.28,1.96 -0.84,2.8 -0.55,0.85 -1.4,1.52 -2.53,2.01 -1.13,0.49 -2.52,0.73 -4.17,0.73z"/>
   <path class="fil1" d="M49.26 49.97l0 -12.49 28.82 0 0 12.49 -28.82 0zm0 -18.74l0 -12.49 28.82 0 0 12.49 -28.82 0zm0 -18.74l0 -12.49 28.82 0 0 12.49 -28.82 0z"/>
   <polygon class="fil2" points="49.26,0 49.26,49.97 32.41,49.97 32.41,31.91 16.85,31.91 16.85,49.97 0,49.97 0,0 16.85,0 16.85,18.06 32.41,18.06 32.41,0 "/>
  </g>
 </g>
</svg>
