<?xml version="1.0" encoding="UTF-8"?>
<!DOCTYPE svg PUBLIC "-//W3C//DTD SVG 1.1//EN" "http://www.w3.org/Graphics/SVG/1.1/DTD/svg11.dtd">
<!-- Creator: CorelDRAW 2018 (64 Bit) -->
<svg xmlns="http://www.w3.org/2000/svg" xml:space="preserve" width="120px" height="60px" version="1.1" style="shape-rendering:geometricPrecision; text-rendering:geometricPrecision; image-rendering:optimizeQuality; fill-rule:evenodd; clip-rule:evenodd"
viewBox="0 0 80 40"
 xmlns:xlink="http://www.w3.org/1999/xlink">
 <defs>
  <style type="text/css">
   <![CDATA[
    .fil0 {fill:none}
    .fil1 {fill:#45C756}
    .fil2 {fill:white}
   ]]>
  </style>
 </defs>
 <g id="Capa_x0020_1">
  <metadata id="CorelCorpID_0Corel-Layer"/>
  <rect class="fil0" width="80" height="40"/>
  <g id="_2183089331392">
   <path class="fil1" d="M80 29.85c0,0.22 -0.01,0.69 -0.02,1.06 -0.04,0.9 -0.11,2.06 -0.21,2.58 -0.17,0.8 -0.41,1.55 -0.73,2.17 -0.38,0.74 -0.86,1.4 -1.43,1.97 -0.57,0.57 -1.23,1.04 -1.96,1.42 -0.63,0.32 -1.38,0.56 -2.18,0.72 -0.52,0.11 -1.67,0.18 -2.56,0.21 -0.37,0.01 -0.85,0.02 -1.06,0.02l-19.7 0c-0.22,0 -0.69,-0.01 -1.06,-0.02 -0.9,-0.04 -2.06,-0.11 -2.58,-0.21 -0.8,-0.17 -1.55,-0.41 -2.17,-0.73 -0.74,-0.37 -1.4,-0.86 -1.97,-1.43 -0.56,-0.57 -1.04,-1.23 -1.42,-1.96 -0.32,-0.63 -0.56,-1.38 -0.72,-2.18 -0.11,-0.52 -0.18,-1.67 -0.21,-2.56 -0.01,-0.37 -0.02,-0.85 -0.02,-1.06l0 -19.7c0,-0.22 0.01,-0.69 0.02,-1.06 0.04,-0.9 0.11,-2.06 0.21,-2.58 0.17,-0.8 0.41,-1.55 0.73,-2.17 0.38,-0.74 0.86,-1.4 1.43,-1.97 0.57,-0.57 1.23,-1.04 1.96,-1.42 0.63,-0.32 1.38,-0.56 2.18,-0.72 0.52,-0.11 1.67,-0.18 2.56,-0.21 0.37,-0.01 0.85,-0.02 1.06,-0.02l19.7 0c0.22,0 0.69,0.01 1.06,0.02 0.9,0.04 2.06,0.11 2.58,0.21 0.8,0.17 1.55,0.41 2.17,0.73 0.74,0.37 1.4,0.86 1.97,1.43 0.56,0.57 1.04,1.23 1.42,1.96 0.32,0.63 0.56,1.38 0.72,2.18 0.11,0.52 0.18,1.67 0.21,2.56 0.01,0.37 0.02,0.85 0.02,1.06l0 19.7z"/>
   <path class="fil2" d="M70.15 9.8c-2.7,-2.7 -6.28,-4.18 -10.09,-4.18 -7.86,0 -14.26,6.39 -14.26,14.25 0,2.51 0.66,4.96 1.9,7.13l-2.02 7.38 7.56 -1.98c2.08,1.14 4.43,1.73 6.81,1.73l0.01 0c0,0 0,0 0,0 7.86,0 14.25,-6.39 14.26,-14.25 0,-3.81 -1.48,-7.39 -4.17,-10.08zm-10.09 21.93l0 0 -0.01 0c-2.12,0 -4.21,-0.57 -6.03,-1.65l-0.43 -0.26 -4.49 1.18 1.2 -4.38 -0.28 -0.44c-1.19,-1.89 -1.81,-4.07 -1.81,-6.31 0,-6.53 5.32,-11.85 11.85,-11.85 3.17,0.01 6.14,1.24 8.38,3.48 2.24,2.24 3.47,5.21 3.47,8.38 0,6.53 -5.32,11.85 -11.85,11.85zm6.5 -8.87l0 0c-0.36,-0.18 -2.11,-1.05 -2.43,-1.16 -0.33,-0.12 -0.57,-0.18 -0.81,0.17 -0.23,0.36 -0.92,1.16 -1.12,1.4 -0.21,0.24 -0.42,0.27 -0.78,0.09 -0.35,-0.18 -1.5,-0.55 -2.86,-1.77 -1.06,-0.94 -1.77,-2.11 -1.98,-2.46 -0.21,-0.36 -0.02,-0.55 0.15,-0.73 0.16,-0.16 0.36,-0.42 0.54,-0.63 0.18,-0.2 0.24,-0.35 0.35,-0.59 0.12,-0.24 0.06,-0.45 -0.03,-0.62 -0.08,-0.18 -0.8,-1.94 -1.09,-2.65 -0.29,-0.69 -0.59,-0.6 -0.81,-0.61 -0.2,-0.01 -0.44,-0.01 -0.68,-0.01 -0.24,0 -0.62,0.09 -0.95,0.44 -0.33,0.36 -1.25,1.22 -1.25,2.97 0,1.76 1.28,3.45 1.46,3.69 0.18,0.24 2.51,3.83 6.09,5.38 0.85,0.36 1.51,0.58 2.03,0.75 0.85,0.27 1.63,0.23 2.24,0.14 0.68,-0.1 2.11,-0.86 2.4,-1.7 0.3,-0.83 0.3,-1.54 0.21,-1.69 -0.09,-0.15 -0.32,-0.24 -0.68,-0.41z"/>
  </g>
 </g>
</svg>
