<?xml version="1.0" encoding="UTF-8"?>
<!DOCTYPE svg PUBLIC "-//W3C//DTD SVG 1.1//EN" "http://www.w3.org/Graphics/SVG/1.1/DTD/svg11.dtd">
<!-- Creator: CorelDRAW 2018 (64 Bit) -->
<svg xmlns="http://www.w3.org/2000/svg" xml:space="preserve" width="140px" height="60px" version="1.1" style="shape-rendering:geometricPrecision; text-rendering:geometricPrecision; image-rendering:optimizeQuality; fill-rule:evenodd; clip-rule:evenodd"
viewBox="0 0 108.89 46.67"
 xmlns:xlink="http://www.w3.org/1999/xlink">
 <defs>
  <style type="text/css">
   <![CDATA[
    .fil0 {fill:none}
    .fil1 {fill:#45C756}
    .fil2 {fill:white}
    .fil3 {fill:#45C756;fill-rule:nonzero}
   ]]>
  </style>
 </defs>
 <g id="Capa_x0020_1">
  <metadata id="CorelCorpID_0Corel-Layer"/>
  <g id="_1596608735840">
   <polygon class="fil0" points="0,0 108.89,0 108.89,46.67 0,46.67 "/>
   <g>
    <circle class="fil1" cx="91.39" cy="23.33" r="17.5"/>
    <g>
     <g>
      <path class="fil2" d="M98.8 15.93c-1.96,-1.96 -4.57,-3.05 -7.36,-3.05 -5.73,0 -10.39,4.66 -10.39,10.39 0,1.84 0.48,3.62 1.39,5.2l-1.48 5.39 5.51 -1.45c1.52,0.83 3.23,1.27 4.97,1.27l0 0c0,0 0,0 0,0 5.73,0 10.4,-4.67 10.4,-10.4 0,-2.77 -1.08,-5.38 -3.04,-7.35zm-7.36 15.99l0 0 0 0c-1.55,0 -3.07,-0.42 -4.4,-1.2l-0.31 -0.19 -3.27 0.86 0.87 -3.19 -0.21 -0.33c-0.86,-1.37 -1.32,-2.96 -1.32,-4.59 0.01,-4.77 3.88,-8.64 8.65,-8.64 2.31,0 4.48,0.9 6.11,2.53 1.63,1.63 2.53,3.8 2.53,6.11 -0.01,4.77 -3.88,8.64 -8.65,8.64zm4.74 -6.47l0 0c-0.26,-0.13 -1.53,-0.76 -1.77,-0.84 -0.24,-0.09 -0.41,-0.13 -0.59,0.13 -0.17,0.26 -0.67,0.84 -0.82,1.01 -0.15,0.18 -0.3,0.2 -0.56,0.07 -0.26,-0.13 -1.1,-0.41 -2.09,-1.29 -0.77,-0.69 -1.29,-1.54 -1.44,-1.8 -0.16,-0.26 -0.02,-0.4 0.11,-0.53 0.12,-0.12 0.26,-0.3 0.39,-0.45 0.13,-0.15 0.17,-0.26 0.26,-0.44 0.09,-0.17 0.04,-0.32 -0.02,-0.45 -0.07,-0.13 -0.59,-1.41 -0.8,-1.93 -0.21,-0.51 -0.43,-0.44 -0.59,-0.45 -0.15,0 -0.32,0 -0.5,0 -0.17,0 -0.45,0.06 -0.69,0.32 -0.24,0.26 -0.91,0.89 -0.91,2.17 0,1.27 0.93,2.51 1.06,2.68 0.13,0.18 1.83,2.8 4.44,3.92 0.62,0.27 1.1,0.43 1.48,0.55 0.62,0.2 1.19,0.17 1.64,0.1 0.5,-0.07 1.53,-0.62 1.75,-1.23 0.22,-0.61 0.22,-1.13 0.15,-1.24 -0.06,-0.1 -0.24,-0.17 -0.5,-0.3z"/>
     </g>
    </g>
   </g>
   <polygon class="fil3" points="6.26,21.72 4.27,21.72 4.27,10.2 6.26,10.2 "/>
   <polygon id="1" class="fil3" points="17.38,21.72 15.37,21.72 10.24,13.54 10.24,21.72 8.24,21.72 8.24,10.2 10.24,10.2 15.39,18.4 15.39,10.2 17.38,10.2 "/>
   <polygon id="2" class="fil3" points="27.35,11.82 23.76,11.82 23.76,21.72 21.77,21.72 21.77,11.82 18.21,11.82 18.21,10.2 27.35,10.2 "/>
   <polygon id="3" class="fil3" points="35.11,16.58 30.38,16.58 30.38,20.11 35.91,20.11 35.91,21.72 28.38,21.72 28.38,10.2 35.86,10.2 35.86,11.82 30.38,11.82 30.38,14.99 35.11,14.99 "/>
   <path id="4" class="fil3" d="M41.29 17.3l-2.23 0 0 4.42 -2 0 0 -11.52 4.05 0c1.33,0 2.36,0.3 3.08,0.89 0.72,0.6 1.08,1.46 1.08,2.59 0,0.78 -0.18,1.42 -0.56,1.94 -0.37,0.52 -0.89,0.92 -1.55,1.2l2.58 4.8 0 0.1 -2.14 0 -2.31 -4.42zm-2.23 -1.63l2.06 0c0.67,0 1.2,-0.17 1.58,-0.51 0.38,-0.34 0.57,-0.8 0.57,-1.39 0,-0.62 -0.18,-1.09 -0.53,-1.43 -0.35,-0.34 -0.87,-0.51 -1.57,-0.52l-2.11 0 0 3.85z"/>
   <polygon id="5" class="fil3" points="48.8,21.72 46.81,21.72 46.81,10.2 48.8,10.2 "/>
   <path id="6" class="fil3" d="M59.96 16.26c0,1.13 -0.19,2.12 -0.58,2.97 -0.39,0.85 -0.95,1.51 -1.68,1.96 -0.72,0.46 -1.55,0.69 -2.5,0.69 -0.93,0 -1.76,-0.23 -2.49,-0.69 -0.74,-0.45 -1.3,-1.1 -1.7,-1.95 -0.4,-0.84 -0.6,-1.82 -0.6,-2.92l0 -0.65c0,-1.12 0.19,-2.11 0.59,-2.97 0.4,-0.87 0.96,-1.52 1.69,-1.98 0.72,-0.46 1.56,-0.68 2.5,-0.68 0.93,0 1.77,0.22 2.49,0.67 0.73,0.45 1.29,1.1 1.68,1.95 0.4,0.85 0.6,1.83 0.6,2.96l0 0.64zm-2 -0.6c0,-1.28 -0.24,-2.26 -0.72,-2.94 -0.48,-0.67 -1.17,-1.02 -2.05,-1.02 -0.87,0 -1.55,0.34 -2.03,1.02 -0.49,0.68 -0.74,1.64 -0.75,2.87l0 0.67c0,1.26 0.24,2.24 0.74,2.93 0.49,0.69 1.18,1.04 2.05,1.04 0.89,0 1.57,-0.34 2.05,-1.01 0.47,-0.68 0.71,-1.67 0.71,-2.96l0 -0.6z"/>
   <path id="7" class="fil3" d="M65.71 17.3l-2.23 0 0 4.42 -2 0 0 -11.52 4.05 0c1.33,0 2.36,0.3 3.08,0.89 0.72,0.6 1.08,1.46 1.08,2.59 0,0.78 -0.18,1.42 -0.56,1.94 -0.37,0.52 -0.89,0.92 -1.55,1.2l2.58 4.8 0 0.1 -2.14 0 -2.31 -4.42zm-2.23 -1.63l2.06 0c0.67,0 1.2,-0.17 1.58,-0.51 0.38,-0.34 0.57,-0.8 0.57,-1.39 0,-0.62 -0.18,-1.09 -0.53,-1.43 -0.35,-0.34 -0.87,-0.51 -1.57,-0.52l-2.11 0 0 3.85z"/>
   <path id="8" class="fil3" d="M7.38 37.28l0 -11.52 3.4 0c1.02,0 1.92,0.22 2.71,0.68 0.79,0.45 1.4,1.09 1.83,1.93 0.43,0.83 0.65,1.79 0.65,2.86l0 0.58c0,1.09 -0.22,2.05 -0.65,2.88 -0.44,0.83 -1.06,1.47 -1.86,1.91 -0.81,0.45 -1.73,0.68 -2.77,0.68l-3.31 0zm2 -9.9l0 8.29 1.3 0c1.05,0 1.86,-0.32 2.42,-0.98 0.56,-0.66 0.85,-1.6 0.86,-2.83l0 -0.64c0,-1.24 -0.27,-2.2 -0.82,-2.86 -0.54,-0.65 -1.33,-0.98 -2.36,-0.98l-1.4 0z"/>
   <polygon id="9" class="fil3" points="24.21,32.14 19.48,32.14 19.48,35.67 25.01,35.67 25.01,37.28 17.48,37.28 17.48,25.76 24.96,25.76 24.96,27.38 19.48,27.38 19.48,30.55 24.21,30.55 "/>
   <polygon id="10" class="fil3" points="28.16,35.67 33.39,35.67 33.39,37.28 26.16,37.28 26.16,25.76 28.16,25.76 "/>
   <path id="11" class="fil3" d="M40.96 33.01l0 4.27 -2 0 0 -11.52 4.41 0c1.28,0 2.3,0.33 3.06,1 0.76,0.68 1.14,1.56 1.14,2.67 0,1.13 -0.38,2.01 -1.11,2.64 -0.75,0.63 -1.78,0.94 -3.12,0.94l-2.38 0zm0 -1.62l2.41 0c0.71,0 1.25,-0.16 1.63,-0.5 0.37,-0.33 0.56,-0.82 0.56,-1.45 0,-0.62 -0.19,-1.12 -0.57,-1.49 -0.38,-0.37 -0.9,-0.56 -1.57,-0.57l-2.46 0 0 4.01z"/>
   <path id="12" class="fil3" d="M53.87 34.6l-4.46 0 -0.94 2.68 -2.07 0 4.35 -11.52 1.79 0 4.36 11.52 -2.09 0 -0.94 -2.68zm-3.9 -1.62l3.34 0 -1.67 -4.78 -1.67 4.78z"/>
   <polygon id="13" class="fil3" points="59.84,37.28 57.84,37.28 57.84,25.76 59.84,25.76 "/>
   <path id="14" class="fil3" d="M67.84 34.31c0,-0.51 -0.18,-0.9 -0.54,-1.17 -0.35,-0.28 -1,-0.55 -1.92,-0.83 -0.93,-0.28 -1.67,-0.59 -2.22,-0.94 -1.05,-0.66 -1.57,-1.52 -1.57,-2.58 0,-0.93 0.37,-1.69 1.13,-2.29 0.76,-0.61 1.74,-0.91 2.95,-0.91 0.8,0 1.51,0.15 2.14,0.45 0.63,0.29 1.12,0.71 1.48,1.26 0.36,0.55 0.54,1.15 0.54,1.82l-1.99 0c0,-0.6 -0.19,-1.07 -0.57,-1.41 -0.37,-0.34 -0.92,-0.51 -1.62,-0.51 -0.65,0 -1.16,0.14 -1.52,0.42 -0.36,0.27 -0.54,0.66 -0.54,1.17 0,0.42 0.19,0.77 0.58,1.05 0.39,0.28 1.04,0.55 1.93,0.82 0.9,0.26 1.62,0.57 2.16,0.91 0.55,0.34 0.94,0.73 1.2,1.17 0.25,0.44 0.38,0.96 0.38,1.55 0,0.96 -0.37,1.73 -1.11,2.3 -0.73,0.57 -1.73,0.85 -2.99,0.85 -0.83,0 -1.6,-0.16 -2.3,-0.47 -0.7,-0.3 -1.24,-0.73 -1.63,-1.27 -0.39,-0.55 -0.58,-1.18 -0.58,-1.9l2 0c0,0.65 0.22,1.15 0.65,1.51 0.43,0.36 1.05,0.54 1.86,0.54 0.7,0 1.22,-0.14 1.57,-0.42 0.35,-0.28 0.53,-0.66 0.53,-1.12z"/>
  </g>
 </g>
</svg>
