<?xml version="1.0" encoding="UTF-8"?>
<!DOCTYPE svg PUBLIC "-//W3C//DTD SVG 1.1//EN" "http://www.w3.org/Graphics/SVG/1.1/DTD/svg11.dtd">
<!-- Creator: CorelDRAW 2018 (64 Bit) -->
<svg xmlns="http://www.w3.org/2000/svg" xml:space="preserve" width="30px" height="30px" version="1.1" style="shape-rendering:geometricPrecision; text-rendering:geometricPrecision; image-rendering:optimizeQuality; fill-rule:evenodd; clip-rule:evenodd"
viewBox="0 0 1.45 1.45"
 xmlns:xlink="http://www.w3.org/1999/xlink">
 <defs>
  <style type="text/css">
   <![CDATA[
    .fil0 {fill:#45C756}
    .fil1 {fill:white}
   ]]>
  </style>
 </defs>
 <g id="Capa_x0020_1">
  <metadata id="CorelCorpID_0Corel-Layer"/>
  <path class="fil0" d="M1.45 1.08c0,0.01 0,0.03 0,0.04 0,0.03 0,0.08 -0.01,0.09 0,0.03 -0.01,0.06 -0.02,0.08 -0.02,0.03 -0.03,0.05 -0.06,0.07 -0.02,0.03 -0.04,0.04 -0.07,0.06 -0.02,0.01 -0.05,0.02 -0.08,0.02 -0.01,0.01 -0.06,0.01 -0.09,0.01 -0.01,0 -0.03,0 -0.04,0l-0.71 0c-0.01,0 -0.03,0 -0.04,0 -0.03,0 -0.07,0 -0.09,-0.01 -0.03,0 -0.06,-0.01 -0.08,-0.02 -0.03,-0.02 -0.05,-0.03 -0.07,-0.06 -0.02,-0.02 -0.04,-0.04 -0.06,-0.07 -0.01,-0.02 -0.02,-0.05 -0.02,-0.08 -0.01,-0.01 -0.01,-0.06 -0.01,-0.09 0,-0.01 0,-0.03 0,-0.04l0 -0.71c0,-0.01 0,-0.03 0,-0.04 0,-0.03 0,-0.07 0.01,-0.09 0,-0.03 0.01,-0.06 0.02,-0.08 0.02,-0.03 0.04,-0.05 0.06,-0.07 0.02,-0.02 0.04,-0.04 0.07,-0.06 0.02,-0.01 0.05,-0.02 0.08,-0.02 0.02,-0.01 0.06,-0.01 0.09,-0.01 0.01,0 0.03,0 0.04,0l0.71 0c0.01,0 0.03,0 0.04,0 0.03,0 0.08,0 0.09,0.01 0.03,0 0.06,0.01 0.08,0.02 0.03,0.02 0.05,0.04 0.07,0.06 0.03,0.02 0.04,0.04 0.06,0.07 0.01,0.02 0.02,0.05 0.02,0.08 0.01,0.02 0.01,0.06 0.01,0.09 0,0.01 0,0.03 0,0.04l0 0.71z"/>
  <path class="fil1" d="M1.09 0.36c-0.09,-0.1 -0.22,-0.16 -0.36,-0.16 -0.29,0 -0.52,0.24 -0.52,0.52 0,0.09 0.02,0.18 0.07,0.26l-0.07 0.27 0.27 -0.07c0.08,0.04 0.16,0.06 0.25,0.06l0 0c0,0 0,0 0,0 0.28,0 0.51,-0.23 0.51,-0.52 0,-0.14 -0.05,-0.27 -0.15,-0.36zm-0.36 0.79l0 0 0 0c-0.08,0 -0.16,-0.02 -0.22,-0.06l-0.02 -0.01 -0.16 0.04 0.04 -0.15 -0.01 -0.02c-0.04,-0.07 -0.06,-0.15 -0.06,-0.23 0,-0.24 0.19,-0.43 0.43,-0.43 0.11,0 0.22,0.05 0.3,0.13 0.08,0.08 0.13,0.19 0.13,0.3 0,0.24 -0.2,0.43 -0.43,0.43zm0.23 -0.32l0 0c-0.01,-0.01 -0.07,-0.04 -0.08,-0.04 -0.02,-0.01 -0.03,-0.01 -0.03,0 -0.01,0.02 -0.04,0.05 -0.04,0.05 -0.01,0.01 -0.02,0.01 -0.03,0.01 -0.02,-0.01 -0.06,-0.02 -0.11,-0.07 -0.04,-0.03 -0.06,-0.07 -0.07,-0.09 -0.01,-0.01 0,-0.02 0.01,-0.02 0,-0.01 0.01,-0.02 0.02,-0.03 0,0 0,-0.01 0.01,-0.02 0,-0.01 0,-0.01 0,-0.02 -0.01,-0.01 -0.03,-0.07 -0.04,-0.1 -0.01,-0.02 -0.02,-0.02 -0.03,-0.02 -0.01,0 -0.02,0 -0.03,0 0,0 -0.02,0.01 -0.03,0.02 -0.01,0.01 -0.05,0.04 -0.05,0.11 0,0.06 0.05,0.12 0.06,0.13 0,0.01 0.09,0.14 0.22,0.19 0.03,0.02 0.05,0.03 0.07,0.03 0.03,0.01 0.06,0.01 0.08,0.01 0.03,-0.01 0.08,-0.03 0.09,-0.06 0.01,-0.03 0.01,-0.06 0.01,-0.07 -0.01,0 -0.01,0 -0.03,-0.01z"/>
 </g>
</svg>
