<?xml version="1.0" encoding="UTF-8"?>
<!DOCTYPE svg PUBLIC "-//W3C//DTD SVG 1.1//EN" "http://www.w3.org/Graphics/SVG/1.1/DTD/svg11.dtd">
<!-- Creator: CorelDRAW 2018 (64 Bit) -->
<svg xmlns="http://www.w3.org/2000/svg" xml:space="preserve" width="40px" height="40px" version="1.1" style="shape-rendering:geometricPrecision; text-rendering:geometricPrecision; image-rendering:optimizeQuality; fill-rule:evenodd; clip-rule:evenodd"
viewBox="0 0 7.26 7.26"
 xmlns:xlink="http://www.w3.org/1999/xlink">
 <defs>
  <style type="text/css">
   <![CDATA[
    .fil0 {fill:#45C756}
    .fil1 {fill:white}
   ]]>
  </style>
 </defs>
 <g id="Capa_x0020_1">
  <metadata id="CorelCorpID_0Corel-Layer"/>
  <path class="fil0" d="M7.26 5.42c0,0.04 0,0.12 -0.01,0.19 0,0.16 -0.01,0.37 -0.03,0.47 -0.03,0.14 -0.08,0.28 -0.14,0.39 -0.06,0.13 -0.15,0.25 -0.25,0.36 -0.11,0.1 -0.23,0.19 -0.36,0.26 -0.11,0.05 -0.25,0.1 -0.4,0.13 -0.09,0.02 -0.3,0.03 -0.46,0.04 -0.07,0 -0.15,0 -0.19,0l-3.58 0c-0.04,0 -0.12,0 -0.19,-0.01 -0.16,0 -0.37,-0.01 -0.47,-0.03 -0.14,-0.03 -0.28,-0.08 -0.39,-0.14 -0.14,-0.06 -0.26,-0.15 -0.36,-0.25 -0.1,-0.11 -0.19,-0.23 -0.26,-0.36 -0.06,-0.11 -0.1,-0.25 -0.13,-0.4 -0.02,-0.09 -0.03,-0.3 -0.04,-0.46 0,-0.07 0,-0.15 0,-0.19l0 -3.58c0,-0.04 0,-0.12 0,-0.19 0.01,-0.16 0.02,-0.37 0.04,-0.47 0.03,-0.14 0.08,-0.28 0.13,-0.39 0.07,-0.14 0.16,-0.26 0.26,-0.36 0.11,-0.1 0.23,-0.19 0.36,-0.26 0.11,-0.06 0.25,-0.1 0.4,-0.13 0.09,-0.02 0.3,-0.03 0.46,-0.04 0.07,0 0.15,0 0.19,0l3.58 0c0.04,0 0.12,0 0.19,0 0.16,0.01 0.37,0.02 0.47,0.04 0.14,0.03 0.28,0.08 0.39,0.13 0.13,0.07 0.25,0.16 0.36,0.26 0.1,0.11 0.19,0.23 0.26,0.36 0.05,0.11 0.1,0.25 0.13,0.39 0.02,0.1 0.03,0.31 0.04,0.47 0,0.07 0,0.15 0,0.19l0 3.58z"/>
  <path class="fil1" d="M5.47 1.78c-0.49,-0.49 -1.14,-0.76 -1.83,-0.76 -1.43,0 -2.59,1.16 -2.59,2.59 0,0.45 0.12,0.9 0.35,1.29l-0.37 1.34 1.37 -0.36c0.38,0.21 0.81,0.31 1.24,0.31l0 0c0,0 0,0 0,0 1.43,0 2.59,-1.16 2.59,-2.58 0,-0.69 -0.27,-1.34 -0.76,-1.83zm-1.83 3.98l0 0 0 0c-0.39,0 -0.77,-0.11 -1.1,-0.3l-0.07 -0.05 -0.82 0.21 0.22 -0.79 -0.05 -0.08c-0.22,-0.34 -0.33,-0.74 -0.33,-1.14 0,-1.19 0.96,-2.15 2.15,-2.15 0.58,0 1.12,0.22 1.52,0.63 0.41,0.4 0.63,0.94 0.63,1.52 0,1.18 -0.96,2.15 -2.15,2.15zm1.18 -1.61l0 0c-0.06,-0.03 -0.38,-0.19 -0.44,-0.21 -0.06,-0.02 -0.1,-0.04 -0.15,0.03 -0.04,0.06 -0.16,0.21 -0.2,0.25 -0.04,0.05 -0.08,0.05 -0.14,0.02 -0.07,-0.03 -0.28,-0.1 -0.52,-0.32 -0.19,-0.17 -0.32,-0.38 -0.36,-0.45 -0.04,-0.06 -0.01,-0.1 0.03,-0.13 0.03,-0.03 0.06,-0.08 0.09,-0.11 0.04,-0.04 0.05,-0.07 0.07,-0.11 0.02,-0.05 0.01,-0.08 -0.01,-0.12 -0.01,-0.03 -0.14,-0.35 -0.2,-0.48 -0.05,-0.12 -0.1,-0.1 -0.14,-0.11 -0.04,0 -0.08,0 -0.13,0 -0.04,0 -0.11,0.02 -0.17,0.08 -0.06,0.07 -0.22,0.22 -0.22,0.54 0,0.32 0.23,0.63 0.26,0.67 0.03,0.04 0.46,0.7 1.1,0.98 0.16,0.06 0.28,0.1 0.37,0.13 0.16,0.05 0.3,0.04 0.41,0.03 0.12,-0.02 0.38,-0.16 0.44,-0.31 0.05,-0.15 0.05,-0.28 0.03,-0.31 -0.01,-0.02 -0.06,-0.04 -0.12,-0.07z"/>
 </g>
</svg>
