<?xml version="1.0" encoding="UTF-8"?>
<!DOCTYPE svg PUBLIC "-//W3C//DTD SVG 1.1//EN" "http://www.w3.org/Graphics/SVG/1.1/DTD/svg11.dtd">
<!-- Creator: CorelDRAW 2018 (64 Bit) -->
<svg xmlns="http://www.w3.org/2000/svg" xml:space="preserve" width="125px" height="60px" version="1.1" style="shape-rendering:geometricPrecision; text-rendering:geometricPrecision; image-rendering:optimizeQuality; fill-rule:evenodd; clip-rule:evenodd"
viewBox="0 0 120.19 57.69"
 xmlns:xlink="http://www.w3.org/1999/xlink">
 <defs>
  <style type="text/css">
   <![CDATA[
    .fil0 {fill:none}
    .fil1 {fill:#45C756}
    .fil2 {fill:white}
    .fil3 {fill:#45C756;fill-rule:nonzero}
   ]]>
  </style>
 </defs>
 <g id="Capa_x0020_1">
  <metadata id="CorelCorpID_0Corel-Layer"/>
  <g id="_1596434854176">
   <polygon class="fil0" points="0,0 120.19,0 120.19,57.69 0,57.69 "/>
   <g>
    <circle class="fil1" cx="98.56" cy="28.84" r="21.63"/>
    <g>
     <g>
      <path class="fil2" d="M107.71 19.69c-2.42,-2.43 -5.65,-3.76 -9.09,-3.77 -7.08,0 -12.85,5.77 -12.85,12.85 0,2.26 0.59,4.48 1.72,6.42l-1.83 6.66 6.82 -1.79c1.87,1.03 3.99,1.57 6.14,1.57l0 0c0,0 0,0 0,0 7.09,0 12.85,-5.77 12.86,-12.85 0,-3.43 -1.34,-6.66 -3.77,-9.09zm-9.09 19.77l0 0 0 0c-1.92,0 -3.8,-0.52 -5.44,-1.49l-0.39 -0.23 -4.04 1.06 1.08 -3.94 -0.26 -0.4c-1.06,-1.71 -1.63,-3.67 -1.63,-5.69 0,-5.89 4.8,-10.68 10.69,-10.68 2.85,0 5.53,1.12 7.55,3.13 2.02,2.02 3.13,4.71 3.13,7.56 -0.01,5.89 -4.8,10.68 -10.69,10.68zm5.86 -8l0 0c-0.32,-0.16 -1.9,-0.94 -2.19,-1.04 -0.3,-0.11 -0.51,-0.16 -0.72,0.16 -0.22,0.32 -0.83,1.04 -1.02,1.26 -0.19,0.21 -0.38,0.24 -0.7,0.08 -0.32,-0.16 -1.35,-0.5 -2.58,-1.6 -0.95,-0.85 -1.6,-1.9 -1.79,-2.22 -0.18,-0.32 -0.02,-0.5 0.15,-0.66 0.14,-0.14 0.32,-0.37 0.48,-0.56 0.16,-0.19 0.21,-0.32 0.32,-0.53 0.1,-0.22 0.05,-0.41 -0.03,-0.57 -0.08,-0.16 -0.72,-1.74 -0.99,-2.38 -0.26,-0.63 -0.52,-0.54 -0.72,-0.55 -0.19,-0.01 -0.4,-0.01 -0.62,-0.01 -0.21,0 -0.56,0.08 -0.85,0.4 -0.3,0.32 -1.13,1.1 -1.13,2.68 0,1.58 1.15,3.1 1.31,3.32 0.16,0.21 2.27,3.45 5.49,4.85 0.77,0.33 1.36,0.52 1.83,0.67 0.77,0.25 1.47,0.21 2.02,0.13 0.62,-0.09 1.9,-0.78 2.17,-1.53 0.27,-0.75 0.27,-1.39 0.19,-1.52 -0.08,-0.14 -0.3,-0.22 -0.62,-0.38z"/>
     </g>
    </g>
   </g>
   <path class="fil3" d="M19.96 22.21c-0.14,1.52 -0.7,2.7 -1.68,3.56 -0.98,0.85 -2.28,1.28 -3.9,1.28 -1.14,0 -2.14,-0.27 -3,-0.81 -0.86,-0.54 -1.53,-1.3 -2,-2.29 -0.47,-1 -0.71,-2.15 -0.73,-3.46l0 -1.33c0,-1.35 0.24,-2.53 0.71,-3.55 0.48,-1.03 1.16,-1.82 2.05,-2.37 0.89,-0.56 1.92,-0.84 3.09,-0.84 1.57,0 2.83,0.43 3.79,1.28 0.96,0.86 1.52,2.06 1.67,3.62l-2.46 0c-0.12,-1.02 -0.42,-1.76 -0.89,-2.21 -0.49,-0.45 -1.19,-0.68 -2.11,-0.68 -1.08,0 -1.9,0.39 -2.48,1.18 -0.58,0.78 -0.88,1.94 -0.89,3.46l0 1.26c0,1.54 0.28,2.71 0.83,3.52 0.55,0.81 1.36,1.21 2.42,1.21 0.97,0 1.7,-0.21 2.19,-0.65 0.49,-0.44 0.8,-1.17 0.93,-2.18l2.46 0z"/>
   <path id="1" class="fil3" d="M29.54 23.54l-5.51 0 -1.16 3.31 -2.57 0 5.38 -14.24 2.22 0 5.39 14.24 -2.58 0 -1.17 -3.31zm-4.82 -2l4.13 0 -2.06 -5.91 -2.07 5.91z"/>
   <path id="2" class="fil3" d="M34.31 26.85l0 -14.24 4.88 0c1.61,0 2.83,0.32 3.67,0.96 0.84,0.65 1.26,1.61 1.26,2.88 0,0.66 -0.17,1.24 -0.52,1.77 -0.35,0.52 -0.87,0.92 -1.55,1.21 0.77,0.21 1.37,0.6 1.79,1.18 0.42,0.57 0.63,1.27 0.63,2.08 0,1.34 -0.43,2.36 -1.29,3.08 -0.86,0.72 -2.08,1.08 -3.68,1.08l-5.19 0zm2.47 -6.43l0 4.44 2.75 0c0.78,0 1.38,-0.19 1.82,-0.57 0.43,-0.39 0.65,-0.92 0.65,-1.61 0,-1.47 -0.75,-2.23 -2.27,-2.26l-2.95 0zm0 -1.83l2.43 0c0.77,0 1.37,-0.17 1.8,-0.52 0.43,-0.34 0.65,-0.84 0.65,-1.47 0,-0.71 -0.2,-1.21 -0.6,-1.52 -0.4,-0.31 -1.02,-0.47 -1.87,-0.47l-2.41 0 0 3.98z"/>
   <path id="3" class="fil3" d="M54.31 23.54l-5.51 0 -1.16 3.31 -2.57 0 5.38 -14.24 2.22 0 5.39 14.24 -2.58 0 -1.17 -3.31zm-4.82 -2l4.13 0 -2.07 -5.91 -2.06 5.91z"/>
   <path id="4" class="fil3" d="M68.13 23.44l2.16 -7.17 2.53 0 -4.21 12.18c-0.64,1.78 -1.74,2.66 -3.28,2.66 -0.35,0 -0.73,-0.06 -1.15,-0.17l0 -1.86 0.45 0.03c0.6,0 1.05,-0.11 1.36,-0.33 0.3,-0.21 0.54,-0.58 0.71,-1.1l0.35 -0.9 -3.72 -10.51 2.56 0 2.24 7.17z"/>
   <path id="5" class="fil3" d="M16.07 46.08l0 -14.24 4.88 0c1.61,0 2.84,0.32 3.68,0.97 0.84,0.64 1.26,1.6 1.26,2.88 0,0.65 -0.17,1.23 -0.53,1.76 -0.35,0.52 -0.86,0.92 -1.54,1.21 0.77,0.21 1.36,0.6 1.78,1.18 0.42,0.58 0.63,1.27 0.63,2.08 0,1.34 -0.42,2.36 -1.28,3.08 -0.86,0.72 -2.09,1.08 -3.68,1.08l-5.2 0zm2.48 -6.43l0 4.45 2.74 0c0.78,0 1.39,-0.2 1.82,-0.58 0.44,-0.39 0.66,-0.92 0.66,-1.6 0,-1.48 -0.76,-2.24 -2.27,-2.27l-2.95 0zm0 -1.82l2.42 0c0.77,0 1.37,-0.18 1.81,-0.52 0.43,-0.35 0.65,-0.85 0.65,-1.48 0,-0.7 -0.2,-1.21 -0.6,-1.52 -0.4,-0.31 -1.03,-0.47 -1.88,-0.47l-2.4 0 0 3.99z"/>
   <path id="6" class="fil3" d="M35.56 42.41c0,-0.62 -0.22,-1.11 -0.66,-1.45 -0.44,-0.34 -1.24,-0.68 -2.38,-1.02 -1.15,-0.35 -2.07,-0.73 -2.74,-1.16 -1.3,-0.81 -1.95,-1.88 -1.95,-3.19 0,-1.15 0.47,-2.09 1.4,-2.84 0.94,-0.74 2.15,-1.11 3.65,-1.11 0.99,0 1.87,0.18 2.65,0.54 0.77,0.37 1.38,0.89 1.83,1.57 0.44,0.67 0.66,1.42 0.66,2.24l-2.46 0c0,-0.74 -0.24,-1.32 -0.7,-1.74 -0.47,-0.42 -1.14,-0.63 -2,-0.63 -0.81,0 -1.44,0.17 -1.89,0.52 -0.44,0.34 -0.67,0.82 -0.67,1.44 0,0.52 0.25,0.96 0.73,1.31 0.48,0.34 1.28,0.68 2.38,1.01 1.11,0.33 2,0.7 2.67,1.12 0.68,0.43 1.17,0.91 1.48,1.45 0.31,0.55 0.47,1.19 0.47,1.92 0,1.19 -0.45,2.13 -1.36,2.84 -0.91,0.7 -2.15,1.05 -3.71,1.05 -1.02,0 -1.97,-0.19 -2.84,-0.57 -0.86,-0.39 -1.53,-0.91 -2.01,-1.58 -0.48,-0.68 -0.72,-1.46 -0.72,-2.35l2.48 0c0,0.8 0.26,1.43 0.8,1.87 0.53,0.45 1.29,0.67 2.29,0.67 0.86,0 1.51,-0.18 1.95,-0.53 0.43,-0.35 0.65,-0.81 0.65,-1.38z"/>
   <path id="7" class="fil3" d="M40.85 43.57c0.44,0 0.78,0.13 1.02,0.38 0.25,0.25 0.37,0.56 0.37,0.94 0,0.37 -0.12,0.68 -0.37,0.92 -0.24,0.24 -0.58,0.37 -1.02,0.37 -0.43,0 -0.76,-0.12 -1.01,-0.36 -0.25,-0.24 -0.37,-0.55 -0.37,-0.93 0,-0.38 0.12,-0.69 0.36,-0.94 0.24,-0.25 0.58,-0.38 1.02,-0.38z"/>
   <path id="8" class="fil3" d="M52.56 42.77l-5.51 0 -1.16 3.31 -2.57 0 5.38 -14.24 2.22 0 5.39 14.24 -2.58 0 -1.17 -3.31zm-4.82 -2l4.13 0 -2.06 -5.91 -2.07 5.91z"/>
   <path id="9" class="fil3" d="M64.78 42.41c0,-0.62 -0.22,-1.11 -0.67,-1.45 -0.44,-0.34 -1.23,-0.68 -2.38,-1.02 -1.14,-0.35 -2.06,-0.73 -2.74,-1.16 -1.29,-0.81 -1.94,-1.88 -1.94,-3.19 0,-1.15 0.46,-2.09 1.4,-2.84 0.94,-0.74 2.15,-1.11 3.64,-1.11 1,0 1.88,0.18 2.65,0.54 0.78,0.37 1.39,0.89 1.83,1.57 0.44,0.67 0.67,1.42 0.67,2.24l-2.46 0c0,-0.74 -0.24,-1.32 -0.71,-1.74 -0.46,-0.42 -1.13,-0.63 -2,-0.63 -0.8,0 -1.43,0.17 -1.88,0.52 -0.45,0.34 -0.67,0.82 -0.67,1.44 0,0.52 0.24,0.96 0.72,1.31 0.49,0.34 1.28,0.68 2.39,1.01 1.11,0.33 2,0.7 2.67,1.12 0.67,0.43 1.16,0.91 1.48,1.45 0.31,0.55 0.47,1.19 0.47,1.92 0,1.19 -0.46,2.13 -1.37,2.84 -0.9,0.7 -2.14,1.05 -3.7,1.05 -1.03,0 -1.97,-0.19 -2.84,-0.57 -0.86,-0.39 -1.54,-0.91 -2.01,-1.58 -0.48,-0.68 -0.72,-1.46 -0.72,-2.35l2.47 0c0,0.8 0.27,1.43 0.8,1.87 0.54,0.45 1.3,0.67 2.3,0.67 0.86,0 1.51,-0.18 1.94,-0.53 0.44,-0.35 0.66,-0.81 0.66,-1.38z"/>
   <path id="10" class="fil3" d="M70.07 43.57c0.44,0 0.78,0.13 1.02,0.38 0.24,0.25 0.36,0.56 0.36,0.94 0,0.37 -0.12,0.68 -0.36,0.92 -0.24,0.24 -0.58,0.37 -1.02,0.37 -0.43,0 -0.77,-0.12 -1.01,-0.36 -0.25,-0.24 -0.37,-0.55 -0.37,-0.93 0,-0.38 0.12,-0.69 0.36,-0.94 0.24,-0.25 0.58,-0.38 1.02,-0.38z"/>
  </g>
 </g>
</svg>
